# xmcd
#
# Track frame offsets:
#	150
#	15723
#	34364
#	58498
#	81715
#	101352
#	117527
#	129603
#	153797
#	166350
#	182378
#	196204
#
# Disc length: 2881 seconds
#
# Revision: 1
# Processed by: cddbd v1.5.1PL0 Copyright (c) Steve Scherf et al.
# Submitted via: audiograbber 1.81.02
#
DISCID=a30b3f0c
DTITLE=David Gate - Unapproachable Light (www.gerth.de)
DYEAR=2005
DGENRE=Pop
TTITLE0=All The Kings Will Bow
TTITLE1=Extravagant Magnificent
TTITLE2=Teach Me To Love Like Jesus Loved
TTITLE3=The Waiting
TTITLE4=Hands On The Cross
TTITLE5=Intimately, Reverently
TTITLE6=Unapproachable Light
TTITLE7=Led To The Lost
TTITLE8=Cry Out In The Night
TTITLE9=Killing Hill
TTITLE10=Shout Of The Nations
TTITLE11=To The Ends Of The Earth
EXTD=
EXTT0=
EXTT1=
EXTT2=
EXTT3=
EXTT4=
EXTT5=
EXTT6=
EXTT7=
EXTT8=
EXTT9=
EXTT10=
EXTT11=
PLAYORDER=
